<svg width="24" height="24" viewBox="0 0 24 24" fill="none" xmlns="http://www.w3.org/2000/svg"><path d="M19.9678 5.26133C21.9614 6.50736 23.7045 8.69538 23.9652 11.1326C24.2259 13.5698 22.9991 16.2613 21.0055 18.2449C19.0119 20.2286 16.2515 21.5095 13.1077 21.8883C9.95878 22.2621 6.43161 21.7338 3.95236 19.7501C1.47312 17.7615 0.041801 14.3224 0.000906226 10.8386C-0.0399885 7.35465 1.30443 3.83089 3.78367 2.58486C6.26292 1.33883 9.87699 2.37054 12.8061 3.03841C15.73 3.71127 17.9741 4.0153 19.9678 5.26133Z" fill="#3467EB"/><path d="M6.09347 14.4733C5.26292 12.7356 5.13451 11.0697 6.03543 9.23401C6.94133 7.39853 8.87156 5.39291 10.7704 5.45287C12.6691 5.51699 14.5264 7.6462 16.0379 9.99133C17.5493 12.3365 18.71 14.8931 17.6418 16.5668C16.5787 18.2406 13.2917 19.0317 10.8744 18.522C8.46212 18.0126 6.92422 16.2069 6.09347 14.4733Z" fill="white" fill-opacity="0.1"/><path d="M10.949 9.08623L9.37098 15.1396H7.586L6.62022 11.1558L5.61994 15.1396H3.83496L2.30005 9.08623H3.87807L4.74901 13.4926L5.82689 9.08623H7.44803L8.4828 13.4926L9.36236 9.08623H10.949Z" fill="white"/><path d="M16.3019 11.035C16.3019 11.3857 16.2214 11.7076 16.0604 12.0008C15.8994 12.2883 15.6522 12.5211 15.3188 12.6993C14.9854 12.8775 14.5715 12.9666 14.0771 12.9666H13.1631V15.1396H11.6885V9.08623H14.0771C14.56 9.08623 14.9682 9.16959 15.3016 9.3363C15.635 9.50301 15.8851 9.73296 16.0518 10.0261C16.2185 10.3193 16.3019 10.6556 16.3019 11.035ZM13.965 11.7939C14.2467 11.7939 14.4565 11.7278 14.5945 11.5955C14.7325 11.4633 14.8014 11.2765 14.8014 11.035C14.8014 10.7936 14.7325 10.6068 14.5945 10.4745C14.4565 10.3423 14.2467 10.2762 13.965 10.2762H13.1631V11.7939H13.965Z" fill="white"/><path d="M19.2598 15.2C18.8171 15.2 18.4205 15.1281 18.0698 14.9844C17.7191 14.8407 17.4374 14.628 17.2247 14.3463C17.0178 14.0646 16.9085 13.7255 16.8971 13.3288H18.4665C18.4894 13.553 18.5671 13.7255 18.6993 13.8462C18.8315 13.9611 19.004 14.0186 19.2167 14.0186C19.4351 14.0186 19.6076 13.9698 19.734 13.872C19.8605 13.7686 19.9238 13.6277 19.9238 13.4495C19.9238 13.3 19.872 13.1764 19.7685 13.0787C19.6708 12.981 19.5472 12.9005 19.3977 12.8373C19.254 12.774 19.0471 12.7022 18.7769 12.6217C18.386 12.501 18.0669 12.3802 17.8197 12.2595C17.5725 12.1388 17.3598 11.9606 17.1816 11.7249C17.0034 11.4892 16.9143 11.1816 16.9143 10.8022C16.9143 10.2389 17.1184 9.79907 17.5265 9.48289C17.9347 9.16096 18.4665 9 19.1218 9C19.7887 9 20.3262 9.16096 20.7343 9.48289C21.1425 9.79907 21.3609 10.2417 21.3897 10.8108H19.7944C19.7829 10.6154 19.7111 10.4631 19.5788 10.3538C19.4466 10.2388 19.277 10.1814 19.0701 10.1814C18.8919 10.1814 18.7481 10.2302 18.6389 10.328C18.5297 10.4199 18.4751 10.555 18.4751 10.7332C18.4751 10.9287 18.5671 11.081 18.751 11.1903C18.935 11.2995 19.2224 11.4173 19.6133 11.5438C20.0042 11.676 20.3204 11.8025 20.5619 11.9232C20.8091 12.0439 21.0218 12.2193 21.2 12.4492C21.3782 12.6792 21.4673 12.9752 21.4673 13.3374C21.4673 13.6823 21.3782 13.9956 21.2 14.2773C21.0275 14.559 20.7746 14.7832 20.4411 14.9499C20.1077 15.1166 19.7139 15.2 19.2598 15.2Z" fill="white"/></svg>