<svg width="24" height="20" viewBox="0 0 24 20" fill="none" xmlns="http://www.w3.org/2000/svg"><path d="M19.9678 3.26133C21.9614 4.50736 23.7045 6.69538 23.9652 9.13261C24.2259 11.5698 22.9991 14.2613 21.0055 16.2449C19.0119 18.2286 16.2515 19.5095 13.1077 19.8883C9.95878 20.2621 6.43161 19.7338 3.95236 17.7501C1.47312 15.7615 0.041801 12.3224 0.000906226 8.83855C-0.0399885 5.35465 1.30443 1.83089 3.78367 0.584857C6.26292 -0.661171 9.87699 0.37054 12.8061 1.03841C15.73 1.71127 17.9741 2.0153 19.9678 3.26133Z" fill="white"/><path d="M6.09347 12.4733C5.26292 10.7356 5.13451 9.06973 6.03543 7.23401C6.94133 5.39853 8.87156 3.39291 10.7704 3.45287C12.6691 3.51699 14.5264 5.6462 16.0379 7.99133C17.5493 10.3365 18.71 12.8931 17.6418 14.5668C16.5787 16.2406 13.2917 17.0317 10.8744 16.522C8.46212 16.0126 6.92422 14.2069 6.09347 12.4733Z" fill="#E1E8FB"/><path d="M10.9489 7.08623L9.37092 13.1396H7.58594L6.62016 9.15577L5.61988 13.1396H3.8349L2.29999 7.08623H3.87801L4.74895 11.4926L5.82683 7.08623H7.44797L8.48274 11.4926L9.3623 7.08623H10.9489Z" fill="#2C3338"/><path d="M16.3018 9.03505C16.3018 9.38572 16.2213 9.70765 16.0603 10.0008C15.8994 10.2883 15.6522 10.5211 15.3188 10.6993C14.9853 10.8775 14.5714 10.9666 14.077 10.9666H13.163V13.1396H11.6884V7.08623H14.077C14.5599 7.08623 14.9681 7.16959 15.3015 7.3363C15.6349 7.50301 15.885 7.73296 16.0517 8.02615C16.2184 8.31933 16.3018 8.65563 16.3018 9.03505ZM13.9649 9.79388C14.2466 9.79388 14.4565 9.72777 14.5944 9.59555C14.7324 9.46333 14.8014 9.27649 14.8014 9.03505C14.8014 8.7936 14.7324 8.60677 14.5944 8.47455C14.4565 8.34233 14.2466 8.27622 13.9649 8.27622H13.163V9.79388H13.9649Z" fill="#2C3338"/><path d="M19.2597 13.2C18.8171 13.2 18.4204 13.1281 18.0697 12.9844C17.7191 12.8407 17.4374 12.628 17.2247 12.3463C17.0177 12.0646 16.9085 11.7255 16.897 11.3288H18.4664C18.4894 11.553 18.567 11.7255 18.6992 11.8462C18.8314 11.9611 19.0039 12.0186 19.2166 12.0186C19.4351 12.0186 19.6075 11.9698 19.734 11.872C19.8605 11.7686 19.9237 11.6277 19.9237 11.4495C19.9237 11.3 19.872 11.1764 19.7685 11.0787C19.6707 10.981 19.5472 10.9005 19.3977 10.8373C19.254 10.774 19.047 10.7022 18.7768 10.6217C18.3859 10.501 18.0669 10.3802 17.8197 10.2595C17.5725 10.1388 17.3598 9.96059 17.1816 9.7249C17.0033 9.4892 16.9142 9.18164 16.9142 8.80223C16.9142 8.23885 17.1183 7.79907 17.5265 7.48289C17.9346 7.16096 18.4664 7 19.1217 7C19.7886 7 20.3261 7.16096 20.7343 7.48289C21.1424 7.79907 21.3609 8.24172 21.3896 8.81085H19.7943C19.7829 8.61539 19.711 8.46305 19.5788 8.35382C19.4465 8.23885 19.277 8.18136 19.07 8.18136C18.8918 8.18136 18.7481 8.23023 18.6389 8.32796C18.5296 8.41993 18.475 8.55503 18.475 8.73324C18.475 8.9287 18.567 9.08104 18.751 9.19026C18.9349 9.29949 19.2224 9.41734 19.6133 9.54381C20.0042 9.67603 20.3204 9.8025 20.5618 9.92323C20.809 10.0439 21.0217 10.2193 21.1999 10.4492C21.3781 10.6792 21.4672 10.9752 21.4672 11.3374C21.4672 11.6823 21.3781 11.9956 21.1999 12.2773C21.0275 12.559 20.7745 12.7832 20.4411 12.9499C20.1077 13.1166 19.7139 13.2 19.2597 13.2Z" fill="#2C3338"/></svg>