<svg width="105" height="38" viewBox="0 0 105 38" fill="none" xmlns="http://www.w3.org/2000/svg"><path d="M39.5195 6.19652C43.4652 8.56398 46.9152 12.7212 47.4312 17.352C47.9472 21.9827 45.519 27.0964 41.5733 30.8654C37.6276 34.6344 32.1643 37.0681 25.9423 37.7878C19.7101 38.4981 12.7292 37.4943 7.82238 33.7253C2.91554 29.9468 0.0827311 23.4126 0.00179357 16.7932C-0.079144 10.1738 2.58168 3.47868 7.48852 1.11123C12.3954 -1.25623 19.5482 0.704026 25.3454 1.97298C31.1324 3.25141 35.5738 3.82907 39.5195 6.19652Z" fill="#2361FF"/><path d="M11.5776 23.6993C9.99955 20.3976 9.75558 17.2326 11.4673 13.7447C13.1885 10.2573 16.856 6.44661 20.4638 6.56054C24.0713 6.68236 27.6002 10.7278 30.4719 15.1836C33.3436 19.6394 35.5489 24.497 33.5195 27.6769C31.4995 30.8573 25.2543 32.3603 20.6614 31.3919C16.078 30.424 13.156 26.9931 11.5776 23.6993Z" fill="#4F80FF"/><path d="M21.7112 14.3362L18.9268 25.0175H15.7772L14.073 17.9879L12.308 25.0175H9.15839L6.45001 14.3362H9.23446L10.7712 22.1113L12.6732 14.3362H15.5337L17.3596 22.1113L18.9116 14.3362H21.7112Z" fill="white"/><path d="M31.1564 17.7749C31.1564 18.3937 31.0144 18.9617 30.7304 19.479C30.4464 19.9862 30.0102 20.397 29.4218 20.7115C28.8335 21.026 28.1032 21.1832 27.2308 21.1832H25.618V25.0175H23.0161V14.3362H27.2308C28.0829 14.3362 28.8031 14.4833 29.3914 14.7774C29.9798 15.0716 30.421 15.4773 30.7152 15.9947C31.0093 16.512 31.1564 17.1054 31.1564 17.7749ZM27.033 19.1139C27.53 19.1139 27.9003 18.9972 28.1437 18.7639C28.3872 18.5306 28.5089 18.2009 28.5089 17.7749C28.5089 17.3489 28.3872 17.0192 28.1437 16.7859C27.9003 16.5526 27.53 16.4359 27.033 16.4359H25.618V19.1139H27.033Z" fill="white"/><path d="M36.3757 25.124C35.5947 25.124 34.8947 24.9972 34.276 24.7436C33.6572 24.49 33.1602 24.1147 32.7848 23.6177C32.4197 23.1206 32.2269 22.5222 32.2067 21.8222H34.9759C35.0165 22.2178 35.1534 22.5222 35.3867 22.7352C35.62 22.938 35.9243 23.0395 36.2996 23.0395C36.6851 23.0395 36.9894 22.9533 37.2126 22.7808C37.4357 22.5982 37.5473 22.3497 37.5473 22.0353C37.5473 21.7715 37.456 21.5534 37.2734 21.381C37.101 21.2085 36.8829 21.0665 36.6192 20.955C36.3656 20.8434 36.0004 20.7166 35.5237 20.5746C34.8339 20.3615 34.2709 20.1485 33.8347 19.9355C33.3985 19.7225 33.0232 19.408 32.7088 18.9921C32.3943 18.5763 32.2371 18.0336 32.2371 17.3641C32.2371 16.37 32.5972 15.594 33.3174 15.0361C34.0376 14.468 34.9759 14.184 36.1323 14.184C37.3089 14.184 38.2574 14.468 38.9776 15.0361C39.6978 15.594 40.0833 16.3751 40.134 17.3793H37.3191C37.2988 17.0344 37.172 16.7656 36.9387 16.5729C36.7054 16.37 36.4062 16.2686 36.041 16.2686C35.7265 16.2686 35.4729 16.3548 35.2802 16.5272C35.0875 16.6895 34.9911 16.9279 34.9911 17.2424C34.9911 17.5872 35.1534 17.856 35.478 18.0488C35.8026 18.2415 36.3098 18.4495 36.9996 18.6726C37.6893 18.9059 38.2472 19.1291 38.6733 19.3421C39.1095 19.5551 39.4848 19.8645 39.7992 20.2703C40.1137 20.676 40.2709 21.1984 40.2709 21.8375C40.2709 22.4461 40.1137 22.9989 39.7992 23.496C39.4949 23.993 39.0486 24.3886 38.4603 24.6828C37.8719 24.9769 37.1771 25.124 36.3757 25.124Z" fill="white"/><path d="M63.206 13.364V15.83H59.858V26H56.78V15.83H53.432V13.364H63.206Z" fill="#282D3E"/><path d="M74.2188 20.816C74.2188 21.104 74.2008 21.404 74.1648 21.716H67.1988C67.2468 22.34 67.4448 22.82 67.7928 23.156C68.1528 23.48 68.5908 23.642 69.1068 23.642C69.8748 23.642 70.4088 23.318 70.7088 22.67H73.9848C73.8168 23.33 73.5108 23.924 73.0668 24.452C72.6348 24.98 72.0888 25.394 71.4288 25.694C70.7688 25.994 70.0308 26.144 69.2148 26.144C68.2308 26.144 67.3548 25.934 66.5868 25.514C65.8188 25.094 65.2188 24.494 64.7868 23.714C64.3548 22.934 64.1388 22.022 64.1388 20.978C64.1388 19.934 64.3488 19.022 64.7688 18.242C65.2008 17.462 65.8008 16.862 66.5688 16.442C67.3368 16.022 68.2188 15.812 69.2148 15.812C70.1868 15.812 71.0508 16.016 71.8068 16.424C72.5628 16.832 73.1508 17.414 73.5708 18.17C74.0028 18.926 74.2188 19.808 74.2188 20.816ZM71.0688 20.006C71.0688 19.478 70.8888 19.058 70.5288 18.746C70.1688 18.434 69.7188 18.278 69.1788 18.278C68.6628 18.278 68.2248 18.428 67.8648 18.728C67.5168 19.028 67.3008 19.454 67.2168 20.006H71.0688Z" fill="#282D3E"/><path d="M75.2306 20.96C75.2306 19.928 75.4226 19.022 75.8066 18.242C76.2026 17.462 76.7366 16.862 77.4086 16.442C78.0806 16.022 78.8306 15.812 79.6586 15.812C80.3666 15.812 80.9846 15.956 81.5126 16.244C82.0526 16.532 82.4666 16.91 82.7546 17.378V15.956H85.8326V26H82.7546V24.578C82.4546 25.046 82.0346 25.424 81.4946 25.712C80.9666 26 80.3486 26.144 79.6406 26.144C78.8246 26.144 78.0806 25.934 77.4086 25.514C76.7366 25.082 76.2026 24.476 75.8066 23.696C75.4226 22.904 75.2306 21.992 75.2306 20.96ZM82.7546 20.978C82.7546 20.21 82.5386 19.604 82.1066 19.16C81.6866 18.716 81.1706 18.494 80.5586 18.494C79.9466 18.494 79.4246 18.716 78.9926 19.16C78.5726 19.592 78.3626 20.192 78.3626 20.96C78.3626 21.728 78.5726 22.34 78.9926 22.796C79.4246 23.24 79.9466 23.462 80.5586 23.462C81.1706 23.462 81.6866 23.24 82.1066 22.796C82.5386 22.352 82.7546 21.746 82.7546 20.978Z" fill="#282D3E"/><path d="M100.875 15.848C102.123 15.848 103.113 16.226 103.845 16.982C104.589 17.738 104.961 18.788 104.961 20.132V26H101.901V20.546C101.901 19.898 101.727 19.4 101.379 19.052C101.043 18.692 100.575 18.512 99.9754 18.512C99.3754 18.512 98.9014 18.692 98.5534 19.052C98.2174 19.4 98.0494 19.898 98.0494 20.546V26H94.9894V20.546C94.9894 19.898 94.8154 19.4 94.4674 19.052C94.1314 18.692 93.6634 18.512 93.0634 18.512C92.4634 18.512 91.9894 18.692 91.6414 19.052C91.3054 19.4 91.1374 19.898 91.1374 20.546V26H88.0594V15.956H91.1374V17.216C91.4494 16.796 91.8574 16.466 92.3614 16.226C92.8654 15.974 93.4354 15.848 94.0714 15.848C94.8274 15.848 95.4994 16.01 96.0874 16.334C96.6874 16.658 97.1554 17.12 97.4914 17.72C97.8394 17.168 98.3134 16.718 98.9134 16.37C99.5134 16.022 100.167 15.848 100.875 15.848Z" fill="#282D3E"/></svg>